# xmcd CD database file
#
# Track frame offsets:
#	150
#	23850
#	46995
#
# Disc length: 941 seconds
#
# Revision: 0
# Processed by: cddbd v1.5PL3 Copyright (c) Steve Scherf et al.
# Submitted via: CDex 1.40Release
#
DISCID=1c03ab03
DTITLE=THE ALFEE - Brave Love 〜Galaxy Express 999〜
DYEAR=1998
DGENRE=Pop
TTITLE0=Brave Love 〜Galaxy Express 999〜
TTITLE1=Beyond The Win
TTITLE2=Brave Love (Original Instrumental)
EXTD=YEAR: 1998 ID3G: 13
EXTT0=
EXTT1=
EXTT2=
PLAYORDER=
